<?xml version="1.0" encoding="utf-8"?>
<!-- Generator: Adobe Illustrator 24.3.2, SVG Export Plug-In . SVG Version: 6.00 Build 0)  -->
<svg version="1.1" id="Capa_2_1_" xmlns="http://www.w3.org/2000/svg" xmlns:xlink="http://www.w3.org/1999/xlink" x="0px" y="0px"
	 viewBox="0 0 466.9 197.9" style="enable-background:new 0 0 466.9 197.9;" xml:space="preserve">
<style type="text/css">
	.st0{fill:#2B3158;}
</style>
<g>
	<g>
		<path class="st0" d="M280.6,49.7v32.5h-3.4v-15h-20.4v15h-3.4V49.7h3.4v14.5h20.4V49.7H280.6z"/>
		<path class="st0" d="M311.8,71h-20.4c0.4,5.1,4.3,8.5,9.6,8.5c3,0,5.6-1.1,7.5-3.2l1.9,2.1c-2.2,2.6-5.6,4-9.4,4
			c-7.6,0-12.8-5.2-12.8-12.5c0-7.2,5.1-12.4,11.9-12.4s11.9,5.1,11.9,12.4C311.8,70.2,311.8,70.6,311.8,71z M291.4,68.5h17.3
			c-0.4-4.8-3.9-8.1-8.7-8.1C295.3,60.4,291.8,63.7,291.4,68.5z"/>
		<path class="st0" d="M336.3,67v15.2h-3.2v-3.8c-1.5,2.5-4.4,4-8.4,4c-5.5,0-8.9-2.9-8.9-7.1c0-3.8,2.4-6.9,9.4-6.9h7.8v-1.5
			c0-4.2-2.4-6.5-6.9-6.5c-3.2,0-6.1,1.1-8.1,2.9l-1.5-2.5c2.5-2.1,6.1-3.3,9.9-3.3C332.8,57.6,336.3,60.7,336.3,67z M333,74.9v-4
			h-7.7c-4.7,0-6.3,1.9-6.3,4.4c0,2.8,2.3,4.6,6.2,4.6C329,79.8,331.7,78.1,333,74.9z"/>
		<path class="st0" d="M345.3,47.7h3.3v34.5h-3.3V47.7z"/>
		<path class="st0" d="M370.8,80.7c-1.3,1.2-3.3,1.7-5.2,1.7c-4.6,0-7.2-2.6-7.2-7.1V60.5h-4.4v-2.8h4.4v-5.3h3.3v5.3h7.4v2.8h-7.4
			v14.6c0,2.9,1.5,4.5,4.2,4.5c1.3,0,2.7-0.4,3.6-1.3L370.8,80.7z"/>
		<path class="st0" d="M399.3,68v14.2H396V68.3c0-5.2-2.7-7.8-7.3-7.8c-5.3,0-8.6,3.3-8.6,8.8v12.8h-3.3V47.7h3.3V62
			c1.8-2.8,5-4.5,9.2-4.5C395.2,57.6,399.3,61,399.3,68z"/>
		<path class="st0" d="M253.4,95.6h3.4v29.6h18.2v3h-21.7V95.6z"/>
		<path class="st0" d="M301,117h-20.4c0.4,5.1,4.3,8.5,9.6,8.5c3,0,5.6-1.1,7.5-3.2l1.9,2.1c-2.2,2.6-5.6,4-9.4,4
			c-7.6,0-12.8-5.2-12.8-12.5s5.1-12.4,11.9-12.4s11.9,5.1,11.9,12.4C301.1,116.2,301,116.6,301,117z M280.6,114.5h17.3
			c-0.4-4.8-3.9-8.1-8.7-8.1C284.5,106.4,281,109.7,280.6,114.5z"/>
		<path class="st0" d="M325.6,113v15.2h-3.2v-3.8c-1.5,2.5-4.4,4-8.4,4c-5.5,0-8.9-2.9-8.9-7.1c0-3.8,2.4-6.9,9.4-6.9h7.8v-1.5
			c0-4.2-2.4-6.5-6.9-6.5c-3.2,0-6.1,1.1-8.1,2.9l-1.5-2.5c2.5-2.1,6.1-3.3,9.9-3.3C322,103.5,325.6,106.7,325.6,113z M322.3,120.8
			v-4h-7.7c-4.7,0-6.3,1.9-6.3,4.4c0,2.8,2.3,4.6,6.2,4.6C318.2,125.8,321,124,322.3,120.8z"/>
		<path class="st0" d="M357,114v14.2h-3.3v-13.8c0-5.2-2.7-7.8-7.3-7.8c-5.3,0-8.6,3.3-8.6,8.8v12.8h-3.3v-24.4h3.2v4.5
			c1.8-3,5.1-4.7,9.3-4.7C352.9,103.5,357,107,357,114z"/>
		<path class="st0" d="M273.8,165.4h-18.1l-3.9,8.7h-3.6l14.9-32.5h3.4l14.9,32.5h-3.6L273.8,165.4z M272.6,162.6l-7.8-17.5
			l-7.8,17.5H272.6z"/>
		<path class="st0" d="M308.5,159.9v14.2h-3.3v-13.8c0-5.2-2.7-7.8-7.3-7.8c-5.3,0-8.6,3.3-8.6,8.8v12.8h-3.3v-24.4h3.2v4.5
			c1.8-3,5.1-4.7,9.3-4.7C304.5,149.5,308.5,152.9,308.5,159.9z"/>
		<path class="st0" d="M336,159v15.2h-3.2v-3.8c-1.5,2.5-4.4,4-8.4,4c-5.5,0-8.9-2.9-8.9-7.1c0-3.8,2.4-6.9,9.4-6.9h7.8v-1.5
			c0-4.2-2.4-6.5-6.9-6.5c-3.2,0-6.1,1.1-8.1,2.9l-1.5-2.5c2.5-2.1,6.1-3.3,9.9-3.3C332.4,149.5,336,152.6,336,159z M332.7,166.8v-4
			H325c-4.7,0-6.3,1.9-6.3,4.4c0,2.8,2.3,4.6,6.2,4.6C328.6,171.7,331.4,170,332.7,166.8z"/>
		<path class="st0" d="M344.9,139.6h3.3v34.5h-3.3V139.6z"/>
		<path class="st0" d="M378,149.7L365.8,177c-2,4.8-4.6,6.3-8.1,6.3c-2.3,0-4.5-0.7-5.9-2.2l1.5-2.5c1.2,1.2,2.7,1.9,4.5,1.9
			c2.2,0,3.7-1,5.1-4.1l1.1-2.4l-10.9-24.4h3.4l9.2,20.8l9.2-20.8H378z"/>
		<path class="st0" d="M396.2,172.6c-1.3,1.2-3.3,1.7-5.2,1.7c-4.6,0-7.2-2.6-7.2-7.1v-14.8h-4.4v-2.8h4.4v-5.3h3.3v5.3h7.4v2.8
			h-7.4V167c0,2.9,1.5,4.5,4.2,4.5c1.3,0,2.7-0.4,3.6-1.3L396.2,172.6z"/>
		<path class="st0" d="M401.5,141.9c0-1.3,1.1-2.3,2.4-2.3c1.3,0,2.4,1,2.4,2.3c0,1.3-1,2.4-2.4,2.4
			C402.5,144.3,401.5,143.3,401.5,141.9z M402.2,149.7h3.3v24.4h-3.3V149.7z"/>
		<path class="st0" d="M412.2,161.9c0-7.3,5.3-12.4,12.6-12.4c4.1,0,7.6,1.6,9.6,4.8L432,156c-1.7-2.5-4.3-3.6-7.1-3.6
			c-5.3,0-9.2,3.8-9.2,9.5c0,5.8,3.9,9.5,9.2,9.5c2.8,0,5.4-1.1,7.1-3.6l2.5,1.7c-2,3.2-5.4,4.8-9.6,4.8
			C417.5,174.3,412.2,169.2,412.2,161.9z"/>
		<path class="st0" d="M437.5,171.3l1.5-2.6c2,1.5,5.3,2.7,8.7,2.7c4.6,0,6.6-1.6,6.6-4c0-6.4-15.8-1.3-15.8-11c0-4,3.4-7,9.7-7
			c3.2,0,6.6,0.9,8.6,2.3l-1.4,2.6c-2.1-1.5-4.7-2.1-7.2-2.1c-4.4,0-6.4,1.7-6.4,4c0,6.6,15.8,1.6,15.8,11c0,4.2-3.7,7-10.1,7
			C443.4,174.3,439.5,173,437.5,171.3z"/>
	</g>
	<g>
		<g>
			<rect x="10.7" y="23.6" class="st0" width="40.8" height="104"/>
		</g>
		<g>
			<rect x="196.8" y="47.8" class="st0" width="40.8" height="79.8"/>
		</g>
		<g>
			<rect x="103.7" y="11.5" class="st0" width="40.8" height="116"/>
		</g>
		<g>
			<path class="st0" d="M98,127.6H57.2V47.8h26.2c8.1,0,14.6,6.6,14.6,14.6V127.6z"/>
		</g>
		<g>
			<path class="st0" d="M164.9,47.8c-8.1,0-14.6,6.6-14.6,14.6v15.7v34.7c0,8.1,6.6,14.6,14.6,14.6h26.2V47.8H164.9z"/>
		</g>
	</g>
</g>
</svg>
